<?xml version="1.0" encoding="UTF-8"?>
<svg version="1.1" xmlns="http://www.w3.org/2000/svg" width="512" height="512">
<path d="M0 0 C5.61 0 11.22 0 17 0 C17.3125 7.6875 17.3125 7.6875 17.38793945 10.08081055 C17.42105225 10.71801025 17.45416504 11.35520996 17.48828125 12.01171875 C17.51446533 12.65584717 17.54064941 13.29997559 17.56762695 13.96362305 C18.18624713 16.87718085 19.16546401 18.64166056 21 21 C23.97030466 21.74460028 23.97030466 21.74460028 27.43994141 21.61181641 C28.41377777 21.62031364 28.41377777 21.62031364 29.4072876 21.62898254 C31.55596479 21.64249674 33.70295849 21.62152304 35.8515625 21.6015625 C37.35030265 21.60706448 38.84903527 21.61519073 40.3477478 21.62582397 C44.29987682 21.64874325 48.25145375 21.64448422 52.20361328 21.63201904 C58.50739241 21.61374584 64.81084152 21.62387743 71.11454391 21.65787888 C73.3064881 21.6639379 75.49771766 21.65077341 77.68960571 21.63589478 C88.08041278 21.62783581 96.48255708 22.55106256 104.26953125 29.99609375 C108.8811741 35.33643863 110.20892034 40.29938419 110.09375 47.30078125 C110.08021484 48.37110596 110.06667969 49.44143066 110.05273438 50.54418945 C110.02663086 51.75981567 110.02663086 51.75981567 110 53 C111.13260254 52.97643433 111.13260254 52.97643433 112.28808594 52.95239258 C115.77531157 52.88926452 119.26241633 52.85076502 122.75 52.8125 C123.93722656 52.78736328 125.12445313 52.76222656 126.34765625 52.73632812 C140.27803142 52.62214472 150.84629264 55.17494495 161.03515625 64.953125 C168.75944869 73.28420899 172.58440147 83.14782105 172.24609375 94.55078125 C171.06254654 106.32989401 166.52709284 115.3020375 157.98046875 123.43359375 C147.04378419 132.0837131 134.87044524 132.30516825 121.56640625 132.265625 C119.96272218 132.26697462 118.35903851 132.26891762 116.75535583 132.27142334 C113.40416546 132.2743615 110.05308216 132.27011983 106.7019043 132.26074219 C102.42742907 132.24935768 98.15320534 132.25590907 93.87873936 132.26788712 C90.56969849 132.27514908 87.26071624 132.27279781 83.95167351 132.26763153 C82.37656562 132.26630652 80.80145225 132.26790204 79.22635078 132.27259064 C64.41209755 132.30701471 52.33784415 130.90556887 41.11328125 120.37890625 C33.03688171 111.28735852 30.57592361 99.65736428 31.16015625 87.73046875 C32.53274225 77.34945426 37.0731111 67.9565541 45 61 C56.13281487 53.30450585 66.91666461 52.69115807 80.125 52.875 C81.36765625 52.88402344 82.6103125 52.89304688 83.890625 52.90234375 C86.92729004 52.92570271 89.96353853 52.95845717 93 53 C92.88541307 51.56163249 92.75790884 50.12429034 92.625 48.6875 C92.52058594 47.48673828 92.52058594 47.48673828 92.4140625 46.26171875 C92.10435574 43.72775559 92.10435574 43.72775559 90 41 C86.61181304 39.87060435 84.02486688 39.86855633 80.45239258 39.8581543 C79.79180847 39.85467987 79.13122437 39.85120544 78.45062256 39.84762573 C77.01669466 39.84027854 75.58275547 39.83492763 74.14881325 39.83133507 C71.87374865 39.82415314 69.5988977 39.80847212 67.32389832 39.78999329 C60.85552978 39.73761729 54.38727703 39.68959607 47.91870117 39.67407227 C43.95980466 39.66394937 40.00144469 39.6345144 36.04276085 39.59275246 C34.53943644 39.58049581 33.03603605 39.5753114 31.53266335 39.57755089 C23.37979203 39.58670403 17.11301021 39.30272999 10 35 C7.27102833 35.49154083 7.27102833 35.49154083 5 37 C0.94464917 38.95344979 -2.35436688 39.2599249 -6.83813477 39.28710938 C-7.5054361 39.29394241 -8.17273743 39.30077545 -8.86026001 39.30781555 C-10.30177535 39.32135212 -11.743338 39.33043834 -13.18490791 39.33552551 C-15.46751076 39.34384515 -17.74971939 39.36437624 -20.0322113 39.38806152 C-25.69839142 39.44434865 -31.36466724 39.47967948 -37.03100586 39.51568604 C-41.82566172 39.54694829 -46.62012487 39.5861475 -51.41462517 39.63594055 C-53.66141735 39.65598249 -55.90805964 39.66432177 -58.15492249 39.67224121 C-59.53370712 39.68521462 -60.91248676 39.69873508 -62.29125977 39.71289062 C-63.49307388 39.72018188 -64.694888 39.72747314 -65.93312073 39.73498535 C-68.88167939 39.9897757 -70.56566516 40.3599452 -73 42 C-74.14814997 44.29629994 -74.30769809 46.07698086 -74.5625 48.625 C-74.64628906 49.44226563 -74.73007813 50.25953125 -74.81640625 51.1015625 C-74.87699219 51.72804687 -74.93757813 52.35453125 -75 53 C-73.86739746 52.97643433 -73.86739746 52.97643433 -72.71191406 52.95239258 C-69.22468843 52.88926452 -65.73758367 52.85076502 -62.25 52.8125 C-61.06277344 52.78736328 -59.87554687 52.76222656 -58.65234375 52.73632812 C-46.6989164 52.63834921 -35.57907316 54.3799054 -26 62 C-16.88455812 71.29040238 -13.69748907 81.58473477 -13.68530273 94.29101562 C-13.87997084 105.15556939 -17.20271524 114.26411118 -25 122 C-33.67528487 129.11498183 -43.00664011 132.09020225 -54.15429688 132.17700195 C-54.85590942 132.18357315 -55.55752197 132.19014435 -56.28039551 132.19691467 C-58.59318167 132.2165563 -60.90590296 132.22829382 -63.21875 132.23828125 C-64.0143483 132.24235678 -64.80994659 132.2464323 -65.62965393 132.25063133 C-69.84619889 132.27145975 -74.06271168 132.28577172 -78.27929688 132.29516602 C-82.60181511 132.3061846 -86.92381207 132.34054049 -91.24614716 132.38033772 C-94.5973801 132.40668391 -97.94849259 132.41487397 -101.29981995 132.41844749 C-102.8911946 132.42327225 -104.48256541 132.43476645 -106.07383728 132.45348549 C-119.23329656 132.59858645 -132.02784453 131.51576391 -142 122 C-150.10916323 113.96644668 -153.89423829 104.55330728 -154.3125 93.1875 C-154.02356399 82.22492803 -150.62788908 72.07066296 -143.11328125 63.96484375 C-131.89243846 53.58170631 -119.64658874 52.66939973 -104.875 52.875 C-103.63234375 52.88402344 -102.3896875 52.89304688 -101.109375 52.90234375 C-98.07270996 52.92570271 -95.03646147 52.95845717 -92 53 C-92.01957764 52.11376953 -92.03915527 51.22753906 -92.05932617 50.31445312 C-92.07455322 49.14849609 -92.08978027 47.98253906 -92.10546875 46.78125 C-92.12504639 45.62689453 -92.14462402 44.47253906 -92.16479492 43.28320312 C-91.86582115 37.32675969 -89.43370204 33.70494297 -85.6875 29.25 C-78.95624375 23.61452965 -73.05183255 21.89070578 -64.32958984 21.84228516 C-63.35548912 21.83466408 -63.35548912 21.83466408 -62.36170959 21.82688904 C-60.9594594 21.81623448 -59.55719273 21.80759527 -58.15491867 21.80076981 C-55.93567918 21.78892772 -53.71662968 21.76946529 -51.49746704 21.74765015 C-45.1907581 21.68618586 -38.88407452 21.63188889 -32.57714844 21.59863281 C-28.71329001 21.57771449 -24.84978839 21.54244623 -20.98613358 21.49787521 C-19.51496189 21.48370487 -18.04372721 21.47499043 -16.57249069 21.47182083 C-14.51848547 21.4669238 -12.46543328 21.44380353 -10.41162109 21.41650391 C-9.24311615 21.40841705 -8.07461121 21.4003302 -6.87069702 21.39199829 C-4.00029902 21.23646911 -4.00029902 21.23646911 -2.126297 19.598526 C-0.69405162 17.56577489 -0.57603705 16.24424486 -0.48828125 13.76953125 C-0.45283203 12.96708984 -0.41738281 12.16464844 -0.38085938 11.33789062 C-0.34702148 10.08782227 -0.34702148 10.08782227 -0.3125 8.8125 C-0.27833984 7.96751953 -0.24417969 7.12253906 -0.20898438 6.25195312 C-0.12658529 4.16843351 -0.06161355 2.08423784 0 0 Z " fill="#4EDAA4" transform="translate(247,175)"/>
<path d="M0 0 C5.61 0 11.22 0 17 0 C17.04898438 1.76988281 17.09796875 3.53976562 17.1484375 5.36328125 C17.22346332 7.67970359 17.29901123 9.99610905 17.375 12.3125 C17.42140625 14.06336914 17.42140625 14.06336914 17.46875 15.84960938 C17.50742188 16.96787109 17.54609375 18.08613281 17.5859375 19.23828125 C17.6173584 20.26993408 17.6487793 21.30158691 17.68115234 22.36450195 C17.82674629 25.22843236 17.82674629 25.22843236 20 28 C23.38818696 29.12939565 25.97513312 29.13144367 29.54760742 29.1418457 C30.20819153 29.14532013 30.86877563 29.14879456 31.54937744 29.15237427 C32.98330534 29.15972146 34.41724453 29.16507237 35.85118675 29.16866493 C38.12625135 29.17584686 40.4011023 29.19152788 42.67610168 29.21000671 C49.14447022 29.26238271 55.61272297 29.31040393 62.08129883 29.32592773 C66.04019534 29.33605063 69.99855531 29.3654856 73.95723915 29.40724754 C75.46056356 29.41950419 76.96396395 29.4246886 78.46733665 29.42244911 C87.74647253 29.41203152 94.95161748 29.57606897 102.2421875 35.96484375 C102.78101563 36.61582031 103.31984375 37.26679688 103.875 37.9375 C104.42929687 38.58589844 104.98359375 39.23429687 105.5546875 39.90234375 C108.82070139 44.64247742 109.23166943 48.60568535 109.125 54.3125 C109.10695313 55.56675781 109.08890625 56.82101562 109.0703125 58.11328125 C109.04710937 59.06589844 109.02390625 60.01851563 109 61 C109.9065332 60.97381592 110.81306641 60.94763184 111.74707031 60.9206543 C115.16911258 60.83451444 118.5899737 60.77231591 122.01269531 60.7253418 C123.4829344 60.70047416 124.95305358 60.66656638 126.42285156 60.62280273 C137.68958635 60.29617502 146.64849039 61.65915233 156.18359375 68.17578125 C165.9282355 77.41376918 170.98649571 86.22460338 171.4375 99.875 C171.11494271 112.25313599 166.83954111 121.48368862 157.93359375 129.96875 C147.19397261 139.03690953 135.72256799 139.60693802 122.28515625 139.53125 C120.58084391 139.53395151 118.87653308 139.53783937 117.17222595 139.54284668 C113.61605015 139.54871243 110.06027881 139.54027513 106.50415039 139.52148438 C101.97759002 139.49871383 97.45197964 139.51182422 92.92545414 139.53577423 C89.41036507 139.55032687 85.89549592 139.54558295 82.3803997 139.53526306 C80.71287355 139.53262091 79.04532651 139.5357756 77.37782478 139.54518127 C64.30374933 139.60275766 51.89401282 138.60562231 42 129 C32.65863433 118.72449776 30.20369421 107.54786312 30.82080078 94.0390625 C31.72764169 83.72034961 36.90668857 75.64151897 44.3125 68.75 C51.41712789 62.95578125 59.1693616 60.8654482 68.171875 60.90234375 C69.1955014 60.90446617 69.1955014 60.90446617 70.23980713 60.90663147 C72.40991684 60.91220916 74.5799217 60.92475746 76.75 60.9375 C78.22525892 60.94251789 79.70051947 60.94708029 81.17578125 60.95117188 C84.78388798 60.96217125 88.39193375 60.97942047 92 61 C91.91266424 59.39482903 91.80447776 57.79078338 91.6875 56.1875 C91.60048828 54.84751953 91.60048828 54.84751953 91.51171875 53.48046875 C90.90253677 50.52756371 90.41297543 49.77147661 88 48 C85.05540776 47.5452438 85.05540776 47.5452438 81.65185547 47.61523438 C80.33974091 47.60512329 79.02762634 47.59501221 77.67575073 47.58459473 C76.62339045 47.58692863 76.62339045 47.58692863 75.54977036 47.58930969 C73.34563975 47.59379384 71.14230967 47.57976819 68.93826294 47.56091309 C64.25052186 47.52411639 59.56286416 47.51043747 54.875 47.5 C49.46090403 47.48788606 44.04719657 47.4660781 38.63327408 47.41999817 C36.47466583 47.40653062 34.3165615 47.4105818 32.15792847 47.41540527 C24.02840457 47.38322787 17.11549407 46.76235054 9.88839722 42.85974121 C8.01041027 41.74881451 8.01041027 41.74881451 6 42.64453125 C5.34 43.02996094 4.68 43.41539062 4 43.8125 C-1.44173464 46.92661767 -6.16433706 47.15271067 -12.37890625 47.2109375 C-14.03842161 47.23898902 -15.69792671 47.26765335 -17.35742188 47.296875 C-19.96671443 47.33823373 -22.57581163 47.37513382 -25.18530273 47.40136719 C-27.70856879 47.42891532 -30.2309713 47.4747625 -32.75390625 47.5234375 C-33.53520401 47.52669037 -34.31650177 47.52994324 -35.12147522 47.53329468 C-39.24426179 47.61875301 -39.24426179 47.61875301 -42.97241211 49.20556641 C-44.32582551 51.56897541 -44.51153759 53.47767888 -44.6875 56.1875 C-44.75324219 57.08855469 -44.81898437 57.98960937 -44.88671875 58.91796875 C-44.94279297 59.94857422 -44.94279297 59.94857422 -45 61 C-44.11852295 60.97905273 -43.2370459 60.95810547 -42.32885742 60.93652344 C-39.0056681 60.86766711 -35.68325484 60.81787538 -32.35961914 60.78027344 C-30.93111076 60.76036391 -29.50268162 60.73322571 -28.07446289 60.69824219 C-15.75931953 60.40451025 -5.72573203 61.90980841 4 70.08984375 C12.17889792 77.90133024 16.94274742 88.13497347 17.3125 99.5 C17.16108991 110.78846315 12.75096116 121.24903884 4.8125 129.1875 C-6.29551243 138.87140827 -18.56650864 139.60307149 -32.6640625 139.49609375 C-34.34931501 139.49624913 -36.03456786 139.49774459 -37.71981812 139.50050354 C-41.23134388 139.50187922 -44.74245706 139.48946755 -48.25390625 139.46655273 C-52.73007191 139.43812649 -57.20555575 139.44092854 -61.68177223 139.45364285 C-65.1547314 139.4606322 -68.62753591 139.45277449 -72.10047531 139.44038582 C-73.75010966 139.43590599 -75.39976081 139.43550377 -77.04939651 139.43945122 C-91.03736396 139.45726714 -102.38582544 138.06940463 -112.9765625 128.1484375 C-122.15542357 118.34463269 -123.56632247 107.74761707 -123.33984375 94.85546875 C-122.79666107 83.21422992 -116.76604658 75.46257045 -108.625 67.75 C-101.34993437 62.89995625 -94.51440355 60.86674425 -85.828125 60.90234375 C-84.8044986 60.90446617 -84.8044986 60.90446617 -83.76019287 60.90663147 C-81.59008316 60.91220916 -79.4200783 60.92475746 -77.25 60.9375 C-75.77474108 60.94251789 -74.29948053 60.94708029 -72.82421875 60.95117188 C-69.21611202 60.96217125 -65.60806625 60.97942047 -62 61 C-62.02610352 59.79307495 -62.02610352 59.79307495 -62.05273438 58.56176758 C-62.06626953 57.49595459 -62.07980469 56.4301416 -62.09375 55.33203125 C-62.11115234 54.27991455 -62.12855469 53.22779785 -62.14648438 52.14379883 C-61.81826256 45.09961167 -59.2676438 39.7781269 -54.125 35 C-48.42475511 30.19979378 -42.38921835 29.69743901 -35.2421875 29.62109375 C-34.41671417 29.60409927 -33.59124084 29.5871048 -32.74075317 29.56959534 C-30.11891197 29.51674676 -27.49708377 29.47629392 -24.875 29.4375 C-22.24585371 29.39346433 -19.61682446 29.34670051 -16.98782349 29.29469299 C-15.35630151 29.26292124 -13.72467656 29.23597475 -12.09298706 29.21446228 C-8.57089759 29.15035337 -5.39090095 28.94266188 -2 28 C-1.05533244 24.75921875 -0.80901172 21.72774345 -0.68359375 18.359375 C-0.64169922 17.28945313 -0.59980469 16.21953125 -0.55664062 15.1171875 C-0.51732422 14.00601562 -0.47800781 12.89484375 -0.4375 11.75 C-0.37272461 10.06003906 -0.37272461 10.06003906 -0.30664062 8.3359375 C-0.20068067 5.55743201 -0.0998474 2.77873186 0 0 Z " fill="#69E6A6" transform="translate(155,322)"/>
<path d="M0 0 C1.05653778 -0.00511093 2.11307556 -0.01022186 3.20162964 -0.01548767 C6.67109955 -0.02931189 10.14036921 -0.02843228 13.60986328 -0.02612305 C16.03687615 -0.0300139 18.46388834 -0.03434937 20.89089966 -0.03910828 C25.96960663 -0.04655508 31.04824407 -0.04629034 36.12695312 -0.04101562 C42.61520736 -0.03522309 49.10317594 -0.05215462 55.59138298 -0.0753603 C60.60158943 -0.09013611 65.61172768 -0.09096409 70.62195206 -0.08785057 C73.01320079 -0.08836184 75.40445354 -0.09356292 77.795681 -0.10366249 C81.14782704 -0.11608412 84.49942436 -0.10920063 87.8515625 -0.09765625 C88.8264563 -0.10529999 89.8013501 -0.11294373 90.80578613 -0.12081909 C106.02141055 -0.0057707 119.59609075 5.90052477 130.51220703 16.4543457 C141.25118145 28.36454467 145.9393419 42.54537013 145.43798828 58.50512695 C143.84017469 74.23869954 137.53880665 86.51440566 126.05517578 97.2746582 C116.98092266 104.30552396 105.99205783 109.37135007 94.35862732 109.4151001 C92.9859948 109.42366531 92.9859948 109.42366531 91.58563232 109.43240356 C90.09800385 109.43408035 90.09800385 109.43408035 88.58032227 109.43579102 C87.52597488 109.44075592 86.4716275 109.44572083 85.3853302 109.45083618 C81.89896997 109.46543353 78.4126553 109.47225698 74.92626953 109.4777832 C72.49593607 109.48353811 70.06560261 109.4892958 67.63526917 109.49505615 C62.53687326 109.50556026 57.43849309 109.51140631 52.34008789 109.51489258 C45.82941611 109.52036586 39.31895466 109.54437166 32.80834866 109.57286453 C27.78523669 109.59155694 22.76217463 109.5967001 17.73903084 109.59822845 C15.34022946 109.60124229 12.9414287 109.60922758 10.54266167 109.62241364 C7.17354581 109.6396067 3.80493381 109.63756113 0.43579102 109.63110352 C-0.54179169 109.6403183 -1.51937439 109.64953308 -2.52658081 109.6590271 C-17.54183771 109.56957499 -30.78353426 104.46337692 -41.81982422 94.2121582 C-52.01857529 83.32952586 -56.77843083 69.56552551 -57.31982422 54.7746582 C-56.72930224 38.64159766 -51.07385322 23.86592045 -39.17529297 12.75512695 C-27.69656913 3.42345035 -14.53010349 -0.03677145 0 0 Z " fill="#4EDAA4" transform="translate(211.94482421875,50.725341796875)"/>
<path d="M0 0 C5.61 0 11.22 0 17 0 C17.04898437 1.76988281 17.09796875 3.53976562 17.1484375 5.36328125 C17.22346332 7.67970359 17.29901123 9.99610905 17.375 12.3125 C17.4059375 13.47974609 17.436875 14.64699219 17.46875 15.84960938 C17.50742187 16.96787109 17.54609375 18.08613281 17.5859375 19.23828125 C17.63306885 20.7857605 17.63306885 20.7857605 17.68115234 22.36450195 C17.82674629 25.22843236 17.82674629 25.22843236 20 28 C23.77828314 29.25942771 27.31838433 29.13547085 31.25390625 29.140625 C32.93035196 29.15896797 34.6067846 29.17853963 36.28320312 29.19921875 C38.91404086 29.22804583 41.54404351 29.24999655 44.17504883 29.25048828 C63.69217894 29.27629728 63.69217894 29.27629728 71 35 C76.97286814 41.16335379 79.10268524 47.1477608 79.0390625 55.73046875 C79.03342285 56.71813232 79.0277832 57.7057959 79.02197266 58.72338867 C79.01109619 59.85031128 79.01109619 59.85031128 79 61 C79.88147705 60.97905273 80.7629541 60.95810547 81.67114258 60.93652344 C84.9943319 60.86766711 88.31674516 60.81787538 91.64038086 60.78027344 C93.06888924 60.76036391 94.49731838 60.73322571 95.92553711 60.69824219 C108.11730105 60.40745301 118.27631598 61.85674888 127.9296875 69.953125 C136.75436755 78.67790301 140.24944572 87.64808989 140.5 99.8125 C140.45570322 110.60097961 137.47018191 119.38090821 129.87109375 127.2578125 C118.23133553 138.09566671 106.60142811 139.61089527 91.21484375 139.49609375 C89.50574177 139.49624908 87.79663944 139.49774375 86.08753967 139.50050354 C82.52296179 139.50188053 78.9587897 139.48944659 75.39428711 139.46655273 C70.84971452 139.43814852 66.30581386 139.44092075 61.76119137 139.45364285 C58.23761868 139.46063224 54.71419843 139.45277407 51.19064522 139.44038582 C49.515891 139.43590446 47.84112023 139.43550516 46.16636467 139.43945122 C31.88901396 139.45735321 20.88434556 138.08427115 10 128 C2.50835709 118.98000736 -0.69542594 108.77112603 -0.34765625 97.11328125 C0.93276808 85.64700947 5.32969757 75.66917955 14.1875 68.1875 C24.47956104 60.97925286 34.55697985 60.46275882 46.6875 60.75 C48.17901223 60.77011392 49.67055093 60.78835597 51.16210938 60.8046875 C54.77530002 60.84825419 58.38747439 60.9170048 62 61 C61.91214662 59.58222818 61.80395353 58.16570961 61.6875 56.75 C61.62949219 55.96109375 61.57148438 55.1721875 61.51171875 54.359375 C60.86268705 51.36689297 60.31395539 50.04638449 58 48 C55.18473697 47.60970304 52.74507158 47.46600418 49.9296875 47.49609375 C49.13402374 47.48667252 48.33835999 47.47725128 47.51858521 47.46754456 C44.97046341 47.43885672 42.4232702 47.43581527 39.875 47.4375 C15.04995399 47.40188641 15.04995399 47.40188641 7.6875 40.875 C7.07261719 40.35679687 6.45773437 39.83859375 5.82421875 39.3046875 C-0.51896877 31.29081034 -0.5139 23.35912502 -0.25 13.4375 C-0.23195313 12.14263672 -0.21390625 10.84777344 -0.1953125 9.51367188 C-0.1485 6.34212516 -0.07676844 3.17096303 0 0 Z " fill="#1AC19E" transform="translate(340,322)"/>
</svg>
